<svg width="337" height="357" viewBox="0 0 337 357" fill="none" xmlns="http://www.w3.org/2000/svg">
<path d="M160.947 71.8623C165.264 69.3655 172.263 69.3655 176.58 71.8623L231.217 103.463C235.534 105.959 235.534 110.007 231.217 112.504L168.764 148.625L106.31 112.504C101.993 110.007 101.993 105.959 106.31 103.463L160.947 71.8623Z" stroke="black" stroke-width="6.01974"/>
<path d="M168.578 121.731L231.031 157.852C235.348 160.349 235.348 164.397 231.031 166.894L176.395 198.495C172.078 200.991 165.079 200.991 160.762 198.495L106.125 166.894C101.808 164.397 101.808 160.349 106.125 157.852L168.578 121.731Z" stroke="black" stroke-width="6.01974"/>
<path d="M4 121.534V306.647C4 332.399 24.8761 353.275 50.6281 353.275H287.033C312.785 353.275 333.661 332.399 333.661 306.647V121.534L199.031 235.979C181.618 250.781 156.043 250.781 138.63 235.979L4 121.534ZM4 121.534L54.5664 81.148M107.507 209.522L168.297 173.775L230.153 209.522M283.316 164.33V80.1667M54.5664 164.518V81.148M309.201 99.863L283.316 80.1667M126.204 23.9332L138.398 14.1941C155.098 0.857014 178.726 0.579766 195.733 13.5213L209.416 23.9332M126.204 23.9332H78.6454C65.3469 23.9332 54.5664 34.7136 54.5664 48.012V81.148M126.204 23.9332H209.416M209.416 23.9332H259.237C272.536 23.9332 283.316 34.7136 283.316 48.012V80.1667" stroke="black" stroke-width="6.01974" stroke-linecap="round"/>
</svg>
